# xmcd CD database file
#
# Track frame offsets:
#	150
#	16835
#	37337
#	53452
#	78237
#	104105
#	122190
#	136845
#	156652
#	172105
#	195370
#	208255
#	227130
#	244392
#	261945
#
# Disc length: 3793 seconds
#
# Revision: 0
# Processed by: cddbd v1.4PL0 Copyright (c) Steve Scherf et al.
# Submitted via: CDex 1.40Release
#
DISCID=db0ecf0f
DTITLE=Pat Scanlon - We Can Do It
DYEAR=1900
DGENRE=Country
TTITLE0=Closet Country Fan
TTITLE1=Where'd They Go
TTITLE2=Me and Dad
TTITLE3=Tear On Her Cheek
TTITLE4=Friends
TTITLE5=Little Doggie
TTITLE6=Remember The Rainbow Warrior
TTITLE7=Day By Day
TTITLE8=The Recycler
TTITLE9=You Only Get One Chance To Say Good-bye
TTITLE10=David's Song - Love Ya All To Pieces
TTITLE11=There's Gotta Be A Job For Me
TTITLE12=I've Got A Feeling I've Been Here Before
TTITLE13=Digging A Hol Deep In Texas
TTITLE14=We Can Do It
EXTD=ID3G: 2
EXTT0=
EXTT1=
EXTT2=
EXTT3=
EXTT4=
EXTT5=
EXTT6=
EXTT7=
EXTT8=
EXTT9=
EXTT10=
EXTT11=
EXTT12=
EXTT13=
EXTT14=
PLAYORDER=
